<svg width="512" height="512" viewBox="0 0 120 120" fill="none" xmlns="http://www.w3.org/2000/svg">
  <rect x="18" y="18" width="84" height="84" rx="20" stroke="#46ecd5" stroke-width="2.5" fill="none"/>
  <rect x="52" y="45" width="16" height="24" rx="8" stroke="#46ecd5" stroke-width="2.5" fill="none"/>
  <line x1="55" y1="52" x2="65" y2="52" stroke="#46ecd5" stroke-width="1.5" stroke-linecap="round"/>
  <line x1="55" y1="57" x2="65" y2="57" stroke="#46ecd5" stroke-width="1.5" stroke-linecap="round"/>
  <line x1="55" y1="62" x2="65" y2="62" stroke="#46ecd5" stroke-width="1.5" stroke-linecap="round"/>
  <line x1="60" y1="69" x2="60" y2="78" stroke="#46ecd5" stroke-width="2.5" stroke-linecap="round"/>
  <path d="M52 75 Q60 80 68 75" stroke="#46ecd5" stroke-width="2.5" fill="none" stroke-linecap="round"/>
  <path d="M42 55 Q38 57 37 60 Q38 63 42 65" stroke="#46ecd5" stroke-width="2" fill="none" stroke-linecap="round" opacity="0.6"/>
  <path d="M35 52 Q30 55 28 60 Q30 65 35 68" stroke="#46ecd5" stroke-width="2" fill="none" stroke-linecap="round" opacity="0.4"/>
  <path d="M78 55 Q82 57 83 60 Q82 63 78 65" stroke="#46ecd5" stroke-width="2" fill="none" stroke-linecap="round" opacity="0.6"/>
  <path d="M85 52 Q90 55 92 60 Q90 65 85 68" stroke="#46ecd5" stroke-width="2" fill="none" stroke-linecap="round" opacity="0.4"/>
  <circle cx="30" cy="30" r="6" fill="rgba(70, 236, 213, 0.2)"/>
  <circle cx="30" cy="30" r="5" stroke="#46ecd5" stroke-width="2" fill="none"/>
  <circle cx="30" cy="30" r="2" fill="#96f7e4"/>
  <circle cx="90" cy="30" r="6" fill="rgba(70, 236, 213, 0.2)"/>
  <circle cx="90" cy="30" r="5" stroke="#46ecd5" stroke-width="2" fill="none"/>
  <circle cx="90" cy="30" r="2" fill="#96f7e4"/>
  <circle cx="30" cy="90" r="6" fill="rgba(70, 236, 213, 0.2)"/>
  <circle cx="30" cy="90" r="5" stroke="#46ecd5" stroke-width="2" fill="none"/>
  <circle cx="30" cy="90" r="2" fill="#96f7e4"/>
  <circle cx="90" cy="90" r="6" fill="rgba(70, 236, 213, 0.2)"/>
  <circle cx="90" cy="90" r="5" stroke="#46ecd5" stroke-width="2" fill="none"/>
  <circle cx="90" cy="90" r="2" fill="#96f7e4"/>
  <path d="M34 34 L52 50" stroke="#46ecd5" stroke-width="1.5" opacity="0.3" stroke-linecap="round"/>
  <path d="M86 34 L68 50" stroke="#46ecd5" stroke-width="1.5" opacity="0.3" stroke-linecap="round"/>
  <path d="M34 86 L52 70" stroke="#46ecd5" stroke-width="1.5" opacity="0.3" stroke-linecap="round"/>
  <path d="M86 86 L68 70" stroke="#46ecd5" stroke-width="1.5" opacity="0.3" stroke-linecap="round"/>
  <circle cx="60" cy="25" r="2.5" fill="#46ecd5" fill-opacity="0.4"/>
  <circle cx="25" cy="60" r="2.5" fill="#46ecd5" fill-opacity="0.4"/>
  <circle cx="95" cy="60" r="2.5" fill="#46ecd5" fill-opacity="0.4"/>
  <circle cx="60" cy="95" r="2.5" fill="#46ecd5" fill-opacity="0.4"/>
  <circle cx="60" cy="60" r="22" fill="rgba(70, 236, 213, 0.2)" opacity="0.15"/>
</svg>
